# xmcd
#
# Track frame offsets: 
#        150
#        19238
#        33147
#        50022
#        73839
#
# Disc length: 1697 seconds
#
# Revision: 0
# Processed by: cddbd v1.5.2PL0 Copyright (c) Steve Scherf et al.
# Submitted via: ExactAudioCopy v0.99pb5
#
DISCID=3f069f05
DTITLE=Kenny Wayne Shepherd Band - A Little Something From The Road Vo
DTITLE=l. 1
DYEAR=2015
DGENRE=Blues
TTITLE0=Looking Back
TTITLE1=House Is Rockin'
TTITLE2=You Can't Judge A Book By The Cover
TTITLE3=Woke Up This Morning
TTITLE4=You Done Lost Your Good Thing Now
EXTD=
EXTT0=
EXTT1=
EXTT2=
EXTT3=
EXTT4=
PLAYORDER=
